<?xml version="1.0" encoding="utf-8"?>
<svg version="1.1" id="Layer_1" xmlns="http://www.w3.org/2000/svg" x="0px" y="0px"
	 viewBox="0 0 500 500" style="enable-background:new 0 0 500 500;" xml:space="preserve">
<style type="text/css">
	.background{fill:#596BE3;}
	.shadow{fill:#2E3D9E;clip-path:url(#shadow-clipping-mask);}
	.white{fill:#EDF5FF;}

	.k-left-fill{clip-path:url(#k-left-clipping-mask);}
	.k-upper-fill{clip-path:url(#k-upper-clipping-mask);}
	.k-lower-fill{clip-path:url(#k-lower-clipping-mask);}
	.j-upper-fill{clip-path:url(#j-upper-clipping-mask);}
</style>
<path class="background" d="M73.6,0h352.9C467.1,0,500,32.9,500,73.6v352.9c0,40.6-32.9,73.5-73.5,73.5H73.6C32.9,500,0,467.1,0,426.5V73.6
	C0,32.9,32.9,0,73.6,0z"/>
<g>
	<defs>

	</defs>
	<clipPath id="shadow-clipping-mask">
		<path id="shadow-mask" d="M73.6,0h352.9C467.1,0,500,32.9,500,73.6v352.9c0,40.6-32.9,73.5-73.5,73.5H73.6C32.9,500,0,467.1,0,426.5
			V73.6C0,32.9,32.9,0,73.6,0z"/>
	</clipPath>

	<polygon class="shadow" points="500,222.9 500,500 247,500 99.8,352.8 104.7,347.9 104.7,241 127.5,224.2 132.2,106.4 197.9,172.1
			286.8,106.4 378.2,197.7 383.5,106.4"/>
</g>
<!--	<rect x="99.8" y="106.4" class="white" width="32.4" height="246.4"/>-->
<!--	<polygon class="white" points="286.8,106.4 286.8,109.1 195.3,203.2 173.8,226.3 132.2,268.3 132.2,227.7 251.5,106.4 "/>-->
<!--	<polygon class="white" points="290.8,350 290.8,352.8 255.8,352.8 173.8,226.3 195.3,203.2 "/>-->
<!--	<path class="white" d="M383.5,331.8v4.8c0,28.6-17.9,60-44.9,72.7c-10.9,5.2-24.1,6.9-36.1,6.9c-6.1,0.1-12.2-1-17.9-3.1l5.8-24.5-->
<!--	c10.2,2.8,26.3,0.3,37.9-4.8c18.2-9,22.2-32.7,22.2-52H383.5z"/>-->
<!--	<rect x="350.6" y="106.4" class="white" width="32.8" height="225.4"/>-->

	<g>
		<clipPath id="k-left-clipping-mask">
			<rect class="k-left-mask" x="99.8" y="106.4" width="32.4" height="393.6"/>
		</clipPath>
		<rect class="k-left-fill" x="99.8" y="106.4" width="32.4" height="393.6"/>
	</g>

	<g>
		<clipPath id="k-upper-clipping-mask">
			<polygon class="k-upper-mask" points="392,-1.4 392,1.4 195.3,203.2 173.8,226.3 132.2,268.3 132.2,227.7 356.6,-1.4 "/>
		</clipPath>
		<polygon class="k-upper-fill" points="392,-1.4 392,1.4 195.3,203.2 173.8,226.3 132.2,268.3 132.2,227.7 356.6,-1.4 "/>
	</g>

	<g>
		<clipPath id="k-lower-clipping-mask">
			<polygon class="k-lower-mask" points="386.6,497.2 386.6,500 351.6,500 173.8,226.3 195.3,203.2 "/>
		</clipPath>
		<polygon class="k-lower-fill" points="386.6,497.2 386.6,500 351.6,500 173.8,226.3 195.3,203.2 "/>
	</g>

	<g>
		<clipPath id="j-upper-clipping-mask">
			<rect class="j-upper-mask" x="350.6" y="-1.4" width="32.8" height="333.2"/>
		</clipPath>
		<rect class="j-upper-fill" x="350.6" y="-1.4" width="32.8" height="333.2"/>
	</g>
</svg>
